<?xml version="1.0" encoding="utf-8"?>
<!-- Generator: Adobe Illustrator 19.1.0, SVG Export Plug-In . SVG Version: 6.00 Build 0)  -->
<svg version="1.1" id="Calque_1" xmlns="http://www.w3.org/2000/svg" xmlns:xlink="http://www.w3.org/1999/xlink" x="0px" y="0px"
	 viewBox="0 0 84.9 47.2" style="enable-background:new 0 0 84.9 47.2;" xml:space="preserve">
<g>
	<path d="M63.1,5.7c-1.8,1-6.2,3.6-9.3,1.6c-1.8-1.2-1.4-2.7,1.4-5.1c1,0.2,3.8,1.1,5.2,1.7C61.7,4.5,62.5,5.4,63.1,5.7z"/>
	<path d="M0.7,31.4c0.3-0.7,0-2.7-0.1-3.2s0.2-1.3,0-2.3c-0.2-1,0.2-3.4,0.4-4c0.2-0.6,0.1-1.2,0-1.9c-0.1-0.7-0.5-2.5-0.6-3.2
		s0.4-3.3,0.5-3.9C0.9,12.3,1,9.9,1.2,9s1-2.2,1.6-2.7s1.7-1.7,2.5-1.7s2.2-0.8,3-1.4s2.4-1.8,3.1-2.3s1.4-0.6,2.3-0.6
		s7.1,0.4,9.6,0.6S32.9,2,33.6,2.1c0.7,0.1,1.4-0.1,3.8-0.6s6.9-0.8,9.5-0.8s5.2,0.8,5.2,0.8s1.6-0.8,3.6-1.3c2-0.5,1.7-0.1,0.9,0.5
		c-1.6,1-6.5,4.6-3.4,7.1c3.3,2.6,10.4-1.6,10.4-1.6C64,6,65,5.9,66.3,6c1.3,0.1,3.9,0.5,4.7,0.6S73.2,7,73.7,7s1.4,0.9,2.1,1.7
		s4.4,4,6.4,0.6c2-3.4-4.9-6.8-4.7-6.7c2.9,0.2,3.9,1,5.8,2.6c1.9,1.6,2.1,3.9,1,6.3c-1.1,2.4-4.6,2.6-5.8,2.5
		c-1.2-0.1-3-1.5-3.5-1.7c-0.5-0.2-0.3,0.5-0.2,0.9c0.2,0.4,0.4,1.6,0.4,1.6c0.7-0.1,2,1,2.9,1.9c1,0.9,0.8,4.9,0.8,4.9
		c-2.7-0.1-3.3-1.6-3.7-1.6s-0.4,0.2-0.7,1c-0.4,0.8-0.8,1.3-1.2,1.2c-0.4-0.1-0.9-0.4-0.9-0.3c0,0.1-0.6,0.4-1.4,0.4
		s-2,0.3-2.4,0.4c-0.4,0.1-1.9,0.5-3.7,1.1c-1.8,0.6-6.2,2.2-7.2,2.7c-0.9,0.5-4.2,2.4-4.5,2.9c-0.3,0.5-1.4,1.2-1.8,1.7
		c-0.5,0.5-0.9,2.9-1.1,3.5s-0.5,1.7-0.5,2.9s-0.4,2.5-0.5,2.9c-0.1,0.4-0.1,2.6-0.1,2.9s-0.1,1.5-0.1,1.7c0.1,0.3,0.5,2.1,0.2,2.1
		c-0.3,0-4.2,0.2-4.2,0s0.3-2.5,0.6-2.9c0.3-0.4,0.1-2-0.1-2.5c-0.1-0.5-0.2-1.2-0.5-1.4c-0.3-0.3-0.6-0.1-0.6-0.1s0,0.5-0.1,1
		c-0.1,0.5-0.7,1.4-0.9,2.1S43.7,45,44,45.6s0,1.6,0,1.6H40c0,0-0.1-1.2,0.4-1.8c0.4-0.6,0.8-3.2,1-3.7c0.2-0.5-0.1-1.6-0.4-2.1
		c-0.3-0.5,0-2.5,0-3.6s-0.1-4.2-0.4-5c-0.3-0.8-1.9-1.2-3.1-1.4s-6.6-0.1-7.8,0.2c-1.1,0.2-3.6,1.3-4.5,1.7
		c-0.9,0.4-1.8-0.3-2.8-0.7c-1-0.4-5.4-3.2-5.6-3.3c-0.2-0.2-1.1-0.2-1.1-0.2s0,0-0.2,0.4s-1.7,4.2-2,4.9c-0.3,0.7-0.7,2.1-0.7,2.6
		c-0.1,0.5,0,6.5,0,6.8s0.5,1.2,0.6,1.4c0.1,0.2-0.2,0.5-0.2,0.7s0.3,0.7,0.7,1.6c0.4,0.9,0.6,1.5,0.6,1.5s-5.3,0-6.2,0
		c-0.4,0-0.8-1.6-0.9-2c-0.1-0.5-1.3-8.4-1.6-9.4s-0.3-2.1,0.3-2.9c0.6-0.8,0.7-1.6,0.7-1.6C6.6,30.9,5,26.9,4.6,26
		c-0.4-0.9-0.4-2.2-0.4-2.6S4,22.2,3.6,21.2c-0.4-0.9-1.3-4.9-1.4-5.6c-0.1-0.7-0.4-1.4-0.4-1.4s0,0-0.2,1.3s-0.1,3.1-0.1,3.7
		s0.8,2.3,1.1,3.2c0.4,0.9,0.6,4.3,0.7,6c0.1,1.7-1.8,4-2.3,4.4c-0.5,0.5-1.1,1-1.1,0.7C0,33.2,0.4,32.1,0.7,31.4z"/>
</g>
</svg>
